<svg xmlns="http://www.w3.org/2000/svg" viewBox="0 0 272 367" >
  <title>Apps For Impact</title>
	<g>
	  <path fill="#231F20" d="M31.6,110.8l-2.3-17.7H16l-2.7,17.7H0.1l15.2-90.9h16l15.2,90.9H31.6z M23.1,43.8l-5.3,37.1h9.8L23.1,43.8z
	    "/>
	  <path fill="#231F20" d="M75.2,74.9h-8.7v35.9H51.9V19.9h23.2c10.4,0,17.7,5.7,17.7,18.4v18.3C92.9,69.2,85.5,74.9,75.2,74.9z
	     M78.8,38.3c0-4-1.5-6-4.9-6h-7.5v31h7.5c3.4,0,4.9-2,4.9-6V38.3z"/>
	  <path fill="#231F20" d="M123.9,74.9h-8.7v35.9h-14.5V19.9h23.2c10.4,0,17.7,5.7,17.7,18.4v18.3C141.6,69.2,134.3,74.9,123.9,74.9z
	     M127.6,38.3c0-4-1.5-6-4.9-6h-7.5v31h7.5c3.4,0,4.9-2,4.9-6V38.3z"/>
	  <path fill="#231F20" d="M168.4,112.4c-13.1,0-21.3-8.1-21.3-20.9v-8.1h13.2v7.8c0,5.7,2.6,9,7.6,9c5.2,0,7.6-3.1,7.6-8.2
	    c0-7.9-4-13.8-11.6-21.8c-7.5-7.5-16.2-18.2-16.2-29.8c0-12.3,7.1-22.2,21.2-22.2c12.1,0,20.1,8.5,20.1,20.9v8.2h-13.1v-8.2
	    c0-5.1-2.3-8.5-7-8.5c-4.2,0-7.1,2.7-7.1,7.4c0,8.9,4,13.2,12.4,22.2c8.9,9.1,15.4,18.3,15.4,29.8
	    C189.7,104.5,180.3,112.4,168.4,112.4z"/>
	  <path fill="#231F20" d="M14.5,150.6v26.2h15.7v12.4H14.5v39.7H0.1V138h35.4v12.6H14.5z"/>
	  <path fill="#231F20" d="M60.3,230.6c-13.1,0-21.7-8.9-21.7-21.6V158c0-12.6,8.6-21.6,21.7-21.6S82,145.4,82,158V209
	    C82,221.7,73.4,230.6,60.3,230.6z M67.4,156.9c0-4.4-2.6-7.4-7.1-7.4c-4.5,0-7.1,3-7.1,7.4v53.2c0,4.4,2.6,7.4,7.1,7.4
	    c4.5,0,7.1-3,7.1-7.4V156.9z"/>
	  <path fill="#231F20" d="M126.5,229.4c-5.6,0-7.8-5.5-7.8-12.6v-19.5c0-3.7-1.9-6.7-5.9-6.7h-7.1v38.4H91.3V138h23.2
	    c10.1,0,17.9,5.6,17.9,17.9V172c0,6.1-2.7,10.6-8.6,12.8c5.9,2,8.9,7,8.9,12.6V216c0,4.1,1,7,2.7,9.3v4.1H126.5z M118.2,156.3
	    c0-3.8-1.5-5.9-4.9-5.9h-7.5v28.8h7c3.5,0,5.5-2,5.5-6.4V156.3z"/>
	  <path fill="#231F20" d="M0.1,347.1v-90.9h14.5v90.9H0.1z"/>
	  <path fill="#231F20" d="M70.7,347.1v-67.6l-2.9,19.1l-8.5,48.5H48.4l-8.1-48.5l-2.7-19.1v67.6H24.8v-90.9h19.5l7.9,46l2.5,17.6
	    l2.6-17.6l7.8-46h19.2v90.9H70.7z"/>
	  <path fill="#231F20" d="M117.6,311.2h-8.7v35.9H94.4v-90.9h23.2c10.4,0,17.7,5.7,17.7,18.4v18.3C135.4,305.4,128,311.2,117.6,311.2
	    z M121.3,274.6c0-4-1.5-6-4.9-6h-7.5v31h7.5c3.4,0,4.9-2,4.9-6V274.6z"/>
	  <path fill="#231F20" d="M164.2,347.1l-2.3-17.7h-13.2l-2.7,17.7h-13.2l15.2-90.9h16l15.2,90.9H164.2z M155.7,280.1l-5.3,37.1h9.8
	    L155.7,280.1z"/>
	  <path fill="#231F20" d="M204.8,348.7c-13.2,0-22-9.3-22-21.7v-50.8c0-12.4,8.7-21.7,22-21.7c13.4,0,20.6,8.7,20.6,20.9v13.1h-12.8
	    v-13.4c0-4.4-2.5-7.5-7.5-7.5s-7.5,3.1-7.5,7.4v53.2c0,4.2,2.5,7.4,7.5,7.4s7.5-3.1,7.5-7.5v-13.5h12.8v13.2
	    C225.5,340,218.2,348.7,204.8,348.7z"/>
	  <path fill="#231F20" d="M258.2,269.4v77.7h-14.5v-77.7h-14.1v-13.2H272v13.2H258.2z"/>
	</g>
	<path id="XMLID_51_" fill="#FFD600" d="M272,248.9H0v-12.6h272V248.9z M272,118.2H0v12.6h272V118.2z M272,0H0v12.6h272V0z
   M272,354.5H0V367h272V354.5z"/>
</svg>
